<?xml version="1.0" encoding="UTF-8" standalone="no"?>
<!-- Created with Inkscape (http://www.inkscape.org/) -->

<svg
   xmlns:dc="http://purl.org/dc/elements/1.1/"
   xmlns:cc="http://creativecommons.org/ns#"
   xmlns:rdf="http://www.w3.org/1999/02/22-rdf-syntax-ns#"
   xmlns:svg="http://www.w3.org/2000/svg"
   xmlns="http://www.w3.org/2000/svg"
   xmlns:sodipodi="http://sodipodi.sourceforge.net/DTD/sodipodi-0.dtd"
   xmlns:inkscape="http://www.inkscape.org/namespaces/inkscape"
   width="744.09448819"
   height="1052.3622047"
   id="svg2"
   version="1.1"
   inkscape:version="0.48.1 "
   sodipodi:docname="New document 1">
  <defs
     id="defs4" />
  <sodipodi:namedview
     id="base"
     pagecolor="#ffffff"
     bordercolor="#666666"
     borderopacity="1.0"
     inkscape:pageopacity="0.0"
     inkscape:pageshadow="2"
     inkscape:zoom="1.979899"
     inkscape:cx="389.72267"
     inkscape:cy="392.64312"
     inkscape:document-units="px"
     inkscape:current-layer="layer1"
     showgrid="false"
     showguides="true"
     inkscape:guide-bbox="true"
     inkscape:window-width="1920"
     inkscape:window-height="1138"
     inkscape:window-x="-8"
     inkscape:window-y="-8"
     inkscape:window-maximized="1" />
  <metadata
     id="metadata7">
    <rdf:RDF>
      <cc:Work
         rdf:about="">
        <dc:format>image/svg+xml</dc:format>
        <dc:type
           rdf:resource="http://purl.org/dc/dcmitype/StillImage" />
        <dc:title></dc:title>
      </cc:Work>
    </rdf:RDF>
  </metadata>
  <g
     inkscape:label="Layer 1"
     inkscape:groupmode="layer"
     id="layer1">
    <path
       style="fill:#ffc255;fill-opacity:1;stroke:none"
       d="m 272.11979,541.01959 c -47.68325,32.47428 -69.7419,104.68166 -24.9216,146.92322 29.28641,25.86425 82.41981,19.32489 102.78193,-13.12424 33.30392,-40.80667 40.04895,-101.0222 10.55547,-144.98453 -24.40801,-22.37183 -64.93511,-2.82442 -88.4158,11.18555 z"
       id="path2985"
       inkscape:connector-curvature="0" />
    <path
       style="fill:#ffc255;fill-opacity:1;stroke:none"
       d="m 216.52456,650.72217 c -36.36198,28.94813 -53.18332,110.45788 -19.00454,148.11272 22.33303,23.05584 62.85115,0.0837 78.37876,-28.84203 25.39668,-36.37576 30.54026,-90.05291 8.04932,-129.24168 -18.6129,-19.94263 -49.51779,-2.51773 -67.42354,9.97099 z"
       id="path2985-1"
       inkscape:connector-curvature="0"
       sodipodi:nodetypes="ccccc" />
    <path
       style="fill:#ffffff;fill-opacity:1;stroke:none"
       d="m 303.23334,571.24315 c -27.65331,18.87341 -40.44596,60.8389 -14.45298,85.38885 16.98429,15.03179 47.79836,11.23124 59.60712,-7.62755 19.31419,-23.71602 23.22589,-58.71209 6.12151,-84.26212 -14.15512,-13.00206 -37.65832,-1.64149 -51.27565,6.50082 z"
       id="path2985-9"
       inkscape:connector-curvature="0" />
    <path
       style="fill:#554400;fill-opacity:1;stroke:none"
       d="m 314.9891,617.31287 c -14.15488,8.54682 -20.70304,27.55087 -7.39804,38.66831 8.69374,6.80714 24.4665,5.08606 30.51104,-3.45414 9.88634,-10.73979 11.88862,-26.58774 3.13341,-38.15806 -7.24556,-5.88798 -19.27612,-0.74335 -26.24641,2.94389 z"
       id="path2985-9-0"
       inkscape:connector-curvature="0" />
    <path
       style="fill:none;stroke:#483e37;stroke-width:17;stroke-linecap:round;stroke-linejoin:round;stroke-miterlimit:4;stroke-opacity:1;stroke-dasharray:none"
       d="m 357.14286,549.50504 c 16.97089,-38.38539 66.65818,-61.22861 105.76094,-43.06935 23.4071,12.1082 -16.0985,54.34883 -1.23267,75.11939"
       id="path3831"
       inkscape:connector-curvature="0"
       sodipodi:nodetypes="ccc" />
    <path
       style="fill:none;stroke:#483e37;stroke-width:17;stroke-linecap:round;stroke-linejoin:round;stroke-miterlimit:4;stroke-opacity:1;stroke-dasharray:none"
       d="m 300,535.21932 c -18.09651,-32.61427 -47.58422,-61.95441 -84.85752,-70.54386 -24.1205,-5.7594 -48.99445,6.28228 -63.41908,25.57469 -9.92613,12.19383 34.20226,21.10789 34.49851,36.97461"
       id="path3833"
       inkscape:connector-curvature="0"
       sodipodi:nodetypes="cccc" />
    <path
       style="fill:#552200;fill-opacity:1;stroke:none"
       d="m 208.57143,599.50504 c -1.80934,34.58244 13.42873,68.24912 35.55044,94.15115 15.72471,18.11208 38.30298,33.08941 63.20504,31.50889 14.96804,-1.07624 28.89275,-8.50257 39.81595,-18.51717 m 0,0 c -1.05374,9.03317 -4.84637,17.52178 -7.10252,26.44494 -2.74282,7.28345 -2.77899,15.95439 -6.64073,22.17445 -10.64068,3.65494 -21.76262,6.80968 -33.18431,6.48111 -24.03686,0.27161 -46.68561,-11.2618 -63.88211,-27.47232 -27.06743,-25.22802 -44.2994,-60.57513 -48.68832,-97.22345 -1.33209,-6.39169 0.75172,-12.07237 3.77341,-17.57666 4.18487,-7.27553 8.55517,-14.8968 14.65284,-20.67229 -0.16682,-1.65772 1.86866,0.89257 2.50031,0.70135"
       id="path3869"
       inkscape:connector-curvature="0" />
    <path
       style="fill:#552200;stroke:none"
       d="m 154.16721,658.82179 c -5.29636,18.19516 -11.77148,30.30677 -4.22661,55.86809 0.75188,19.40461 19.12051,30.17893 31.98614,41.97022 27.32178,23.50992 61.44848,42.3046 98.3394,42.17688 10.0415,-2.04672 27.48699,0.49765 29.8531,-12.51271 -9.7349,-8.07494 -25.98074,-7.23925 -37.77018,-13.57553 -46.99501,-17.32234 -92.02479,-49.20485 -112.1669,-96.50994 -2.4009,-5.65862 -4.41983,-11.48031 -6.01495,-17.41701 z"
       id="path3879"
       inkscape:connector-curvature="0"
       sodipodi:nodetypes="cccccccc" />
    <path
       style="fill:#ffc255;fill-opacity:1;stroke:none"
       d="m 212.30852,655.31242 c -36.36198,28.94813 -53.18332,110.45788 -19.00454,148.11272 22.33303,23.05584 62.85115,0.0837 78.37876,-28.84203 25.39668,-36.37576 30.54026,-90.05291 8.04932,-129.24168 -18.6129,-19.94263 -49.51779,-2.51773 -67.42354,9.97099 z"
       id="path2985-1-4"
       inkscape:connector-curvature="0"
       sodipodi:nodetypes="ccccc" />
  </g>
</svg>
